<svg height="512pt" viewBox="0 -78 512.00023 512" width="512pt" xmlns="http://www.w3.org/2000/svg"><path d="m487.757812 24.375c-15.679687-15.71875-36.546874-24.375-58.75-24.375h-346.015624c-45.761719 0-82.992188 37.230469-82.992188 82.992188v190.023437c0 45.761719 37.230469 82.992187 82.992188 82.992187h345.578124c45.65625 0 82.886719-37.144531 82.992188-82.800781l.4375-190.023437c.050781-22.203125-8.558594-43.089844-24.242188-58.808594zm-6.203124 248.761719c-.066407 29.148437-23.835938 52.859375-52.984376 52.859375h-345.578124c-29.214844 0-52.984376-23.765625-52.984376-52.980469v-190.023437c0-29.214844 23.769532-52.980469 52.984376-52.980469h346.015624c14.175782 0 27.496094 5.523437 37.507813 15.558593 10.011719 10.035157 15.507813 23.371094 15.476563 37.542969zm0 0"/><path d="m193.546875 280.894531 156.015625-102.890625-156.015625-102.894531zm30.007813-150.042969 71.5 47.152344-71.5 47.152344zm0 0"/></svg>